<svg xmlns="http://www.w3.org/2000/svg" width="60" height="60" style="background-color: black;"><style>
      text {
        font-family: monospace;
        font-size: 10px;
        fill: white;
      }
    </style><text x="0" y="0">-</text><text x="6" y="0">.</text><text x="12" y="0">:</text><text x="18" y="0">:</text><text x="24" y="0">-</text><text x="30" y="0">-</text><text x="36" y="0">.</text><text x="42" y="0">:</text><text x="48" y="0">-</text><text x="54" y="0">-</text><text x="0" y="6">=</text><text x="6" y="6">-</text><text x="12" y="6">#</text><text x="18" y="6">@</text><text x="24" y="6">@</text><text x="30" y="6">@</text><text x="36" y="6">@</text><text x="42" y="6">-</text><text x="48" y="6">-</text><text x="54" y="6">=</text><text x="0" y="12">*</text><text x="6" y="12">#</text><text x="12" y="12">@</text><text x="18" y="12">@</text><text x="24" y="12">@</text><text x="30" y="12">@</text><text x="36" y="12">@</text><text x="42" y="12">%</text><text x="48" y="12">*</text><text x="54" y="12">*</text><text x="0" y="18">#</text><text x="6" y="18">@</text><text x="12" y="18">@</text><text x="18" y="18">%</text><text x="24" y="18">+</text><text x="30" y="18">#</text><text x="36" y="18">@</text><text x="42" y="18">@</text><text x="48" y="18">%</text><text x="54" y="18">#</text><text x="0" y="24">*</text><text x="6" y="24">@</text><text x="12" y="24">@</text><text x="18" y="24">=</text><text x="24" y="24">%</text><text x="30" y="24">-</text><text x="36" y="24">%</text><text x="42" y="24">%</text><text x="48" y="24">#</text><text x="54" y="24">%</text><text x="0" y="30">#</text><text x="6" y="30">@</text><text x="12" y="30">@</text><text x="18" y="30">-</text><text x="24" y="30">@</text><text x="30" y="30">-</text><text x="36" y="30">%</text><text x="42" y="30">%</text><text x="48" y="30">#</text><text x="54" y="30">%</text><text x="0" y="36">#</text><text x="6" y="36">@</text><text x="12" y="36">@</text><text x="18" y="36">%</text><text x="24" y="36">#</text><text x="30" y="36">#</text><text x="36" y="36">@</text><text x="42" y="36">@</text><text x="48" y="36">%</text><text x="54" y="36">+</text><text x="0" y="42">+</text><text x="6" y="42">%</text><text x="12" y="42">@</text><text x="18" y="42">@</text><text x="24" y="42">@</text><text x="30" y="42">@</text><text x="36" y="42">@</text><text x="42" y="42">%</text><text x="48" y="42">*</text><text x="54" y="42">:</text><text x="0" y="48">+</text><text x="6" y="48">-</text><text x="12" y="48">%</text><text x="18" y="48">@</text><text x="24" y="48">@</text><text x="30" y="48">@</text><text x="36" y="48">@</text><text x="42" y="48">+</text><text x="48" y="48">-</text><text x="54" y="48">:</text><text x="0" y="54">:</text><text x="6" y="54">:</text><text x="12" y="54">:</text><text x="18" y="54">-</text><text x="24" y="54">-</text><text x="30" y="54">.</text><text x="36" y="54">:</text><text x="42" y="54">:</text><text x="48" y="54">:</text><text x="54" y="54">:</text></svg>